<svg xmlns="http://www.w3.org/2000/svg" version="1.1" xmlnsXlink="http://www.w3.org/1999/xlink" xmlnsSvgjs="http://svgjs.dev/svgjs" width="" height="" viewBox="0 0 2000 368">
<g transform="matrix(1,0,0,1,-1.2121212121212466,0.20834369895712257)">
<svg viewBox="0 0 396 73" data-background-color="#ffffff" preserveAspectRatio="xMidYMid meet" height="368" width="2000" xmlns="http://www.w3.org/2000/svg" xmlnsXlink="http://www.w3.org/1999/xlink"><g id="tight-bounds" transform="matrix(1,0,0,1,0.2400000000000091,-0.0413279313933117)"><svg viewBox="0 0 395.52 73.08264828013017" height="73.08264828013017" width="395.52"><g><svg viewBox="0 0 601.7636886606806 111.1915554362416" height="73.08264828013017" width="395.52"><g transform="matrix(1,0,0,1,206.2436886606805,34.35980456375839)"><svg viewBox="0 0 395.52000000000004 42.47194630872483" height="42.47194630872483" width="395.52000000000004">
<g id="textblocktransform">
<svg viewBox="0 0 395.52000000000004 42.47194630872483" height="42.47194630872483" width="395.52000000000004" id="textblock"><g><svg viewBox="0 0 395.52000000000004 42.47194630872483" height="42.47194630872483" width="395.52000000000004">
<g transform="matrix(1,0,0,1,0,0)">
<svg width="395.52000000000004" viewBox="3.0799999237060547 -40.47999954223633 381.9300231933594 41.02000045776367" height="42.47194630872483" data-palette-color="#111111">
<path d="M3.08-5.08L7.2-11.35Q9.28-10.18 11.41-9.24 13.55-8.3 15.84-7.65 18.14-7.01 20.67-6.67 23.19-6.32 26.05-6.32L26.05-6.32Q29.49-6.32 31.91-6.77 34.33-7.23 35.85-8.02 37.38-8.81 38.07-9.91 38.77-11.01 38.77-12.3L38.77-12.3Q38.77-14.38 37.04-15.59 35.3-16.8 31.69-16.8L31.69-16.8Q30.1-16.8 28.34-16.59 26.59-16.38 24.79-16.14 23-15.89 21.25-15.69 19.51-15.48 17.97-15.48L17.97-15.48Q15.41-15.48 13.05-16.14 10.69-16.8 8.87-18.12 7.06-19.43 5.98-21.41 4.91-23.39 4.91-26.03L4.91-26.03Q4.91-27.59 5.33-29.13 5.76-30.66 6.7-32.07 7.64-33.47 9.13-34.68 10.62-35.89 12.73-36.77 14.84-37.65 17.61-38.15 20.39-38.65 23.93-38.65L23.93-38.65Q26.49-38.65 29.08-38.37 31.67-38.09 34.12-37.57 36.57-37.06 38.84-36.34 41.11-35.62 43.07-34.74L43.07-34.74 39.67-28.49Q38.06-29.2 36.21-29.8 34.35-30.4 32.32-30.83 30.3-31.27 28.14-31.53 25.98-31.79 23.73-31.79L23.73-31.79Q20.53-31.79 18.47-31.32 16.41-30.86 15.19-30.14 13.96-29.42 13.49-28.53 13.01-27.64 13.01-26.76L13.01-26.76Q13.01-25.05 14.55-23.96 16.09-22.88 19.24-22.88L19.24-22.88Q20.51-22.88 22.16-23.06 23.8-23.24 25.62-23.46 27.44-23.68 29.33-23.86 31.23-24.05 33.01-24.05L33.01-24.05Q36.38-24.05 38.98-23.29 41.58-22.53 43.33-21.13 45.09-19.73 46-17.74 46.9-15.75 46.9-13.28L46.9-13.28Q46.9-9.99 45.37-7.41 43.85-4.83 41.03-3.06 38.21-1.29 34.23-0.38 30.25 0.54 25.37 0.54L25.37 0.54Q22.14 0.54 19.07 0.13 15.99-0.27 13.17-1.01 10.35-1.76 7.8-2.8 5.25-3.83 3.08-5.08L3.08-5.08ZM54.51 0L54.51-40.48 61.74-40.48 61.74-26.61Q64.01-27.86 66.81-28.59 69.6-29.32 72.68-29.32L72.68-29.32Q76.24-29.32 79.09-28.27 81.93-27.22 83.91-25.26 85.89-23.29 86.95-20.48 88.01-17.68 88.01-14.16L88.01-14.16 88.01 0 80.81 0 80.81-13.87Q80.81-15.92 80.15-17.61 79.49-19.31 78.22-20.53 76.95-21.75 75.13-22.42 73.31-23.1 71.02-23.1L71.02-23.1Q68.26-23.1 65.89-22.22 63.52-21.34 61.74-20L61.74-20 61.74 0 54.51 0ZM99.9-32.74L99.9-32.74Q98.82-32.74 97.96-33.04 97.09-33.35 96.48-33.87 95.87-34.4 95.54-35.1 95.21-35.79 95.21-36.57L95.21-36.57Q95.21-37.38 95.54-38.07 95.87-38.77 96.48-39.28 97.09-39.79 97.96-40.1 98.82-40.41 99.9-40.41L99.9-40.41Q101-40.41 101.86-40.1 102.73-39.79 103.34-39.28 103.95-38.77 104.28-38.07 104.61-37.38 104.61-36.57L104.61-36.57Q104.61-35.79 104.28-35.1 103.95-34.4 103.34-33.87 102.73-33.35 101.86-33.04 101-32.74 99.9-32.74ZM96.28 0L96.28-28.81 103.51-28.81 103.51 0 96.28 0ZM112.76 0L112.76-28.81 119.99-28.81 119.99-24.66Q122.38-26.44 125.04-27.73 127.7-29.03 130.34-29.71L130.34-29.71 132.46-23.1Q128.29-22.68 125.13-21.23 121.97-19.78 119.99-17.14L119.99-17.14 119.99 0 112.76 0ZM150.23 0L150.23-31.37 136.15-31.37 136.15-38.16 172.06-38.16 172.06-31.37 157.97-31.37 157.97 0 150.23 0ZM179.41 0L179.41-28.81 186.63-28.81 186.63-26.37Q189.51-28 192.14-28.66 194.76-29.32 197.28-29.32L197.28-29.32Q200.57-29.32 203.38-28.36 206.19-27.39 208.24-25.49 210.29-23.58 211.45-20.74 212.61-17.9 212.61-14.16L212.61-14.16 212.61 0 205.41 0 205.41-12.99Q205.41-15.36 204.74-17.22 204.06-19.09 202.81-20.37 201.55-21.66 199.76-22.33 197.96-23 195.74-23L195.74-23Q194.57-23 193.33-22.75 192.1-22.51 190.92-22.06 189.73-21.61 188.63-20.94 187.54-20.26 186.63-19.41L186.63-19.41 186.63 0 179.41 0ZM222.37 0L222.37-38.16 242.49-38.16Q246.88-38.16 250.11-37.21 253.33-36.25 255.45-34.46 257.58-32.67 258.62-30.08 259.65-27.49 259.65-24.24L259.65-24.24Q259.65-21.19 258.63-18.6 257.6-16.02 255.49-14.12 253.38-12.23 250.16-11.17 246.93-10.11 242.54-10.11L242.54-10.11 230.11-10.13 230.11 0 222.37 0ZM230.11-16.82L242.69-16.82Q244.88-16.82 246.53-17.35 248.18-17.87 249.29-18.84 250.4-19.8 250.95-21.18 251.5-22.56 251.5-24.24L251.5-24.24Q251.5-27.64 249.29-29.53 247.08-31.42 242.69-31.42L242.69-31.42 230.11-31.42 230.11-16.82ZM265.83-9.08L265.83-9.08Q265.83-11.16 266.73-12.87 267.63-14.58 269.44-15.81 271.25-17.04 273.94-17.71 276.64-18.38 280.23-18.38L280.23-18.38Q282.89-18.38 285.83-17.99 288.78-17.6 291.9-16.8L291.9-16.8Q291.78-18.16 291.07-19.32 290.36-20.48 289.11-21.33 287.85-22.17 286.08-22.63 284.31-23.1 282.06-23.1L282.06-23.1Q280.84-23.1 279.38-22.95 277.91-22.8 276.35-22.51 274.79-22.22 273.26-21.78 271.74-21.34 270.42-20.73L270.42-20.73 268.22-26.66Q269.86-27.25 271.72-27.73 273.59-28.22 275.54-28.58 277.5-28.93 279.45-29.13 281.4-29.32 283.23-29.32L283.23-29.32Q291.32-29.32 295.25-25.2 299.18-21.07 299.18-12.55L299.18-12.55 299.18 0 291.95 0 291.95-2.71Q290.83-2.05 289.5-1.46 288.17-0.88 286.6-0.44 285.04 0 283.25 0.26 281.45 0.51 279.45 0.51L279.45 0.51Q276.08 0.51 273.53-0.22 270.98-0.95 269.27-2.25 267.56-3.54 266.69-5.29 265.83-7.03 265.83-9.08ZM273.44-9.33L273.44-9.33Q273.44-8.62 273.81-7.97 274.18-7.32 274.98-6.82 275.79-6.32 277.05-6.02 278.3-5.71 280.09-5.71L280.09-5.71Q281.99-5.71 283.77-6.05 285.55-6.4 287.09-6.96 288.63-7.52 289.88-8.25 291.12-8.98 291.95-9.77L291.95-9.77 291.95-11.04Q290.29-11.5 288.67-11.82 287.04-12.13 285.57-12.32 284.09-12.5 282.78-12.57 281.48-12.65 280.5-12.65L280.5-12.65Q278.47-12.65 277.13-12.38 275.79-12.11 274.96-11.66 274.13-11.21 273.79-10.6 273.44-9.99 273.44-9.33ZM308.72 0L308.72-28.81 315.95-28.81 315.95-26.37Q318.83-28 321.45-28.66 324.08-29.32 326.59-29.32L326.59-29.32Q329.89-29.32 332.69-28.36 335.5-27.39 337.55-25.49 339.6-23.58 340.76-20.74 341.92-17.9 341.92-14.16L341.92-14.16 341.92 0 334.72 0 334.72-12.99Q334.72-15.36 334.05-17.22 333.38-19.09 332.12-20.37 330.86-21.66 329.07-22.33 327.27-23 325.05-23L325.05-23Q323.88-23 322.65-22.75 321.42-22.51 320.23-22.06 319.05-21.61 317.95-20.94 316.85-20.26 315.95-19.41L315.95-19.41 315.95 0 308.72 0ZM363.19 0L363.19-31.37 349.1-31.37 349.1-38.16 385.01-38.16 385.01-31.37 370.92-31.37 370.92 0 363.19 0Z" opacity="1" transform="matrix(1,0,0,1,0,0)" fill="#111111" class="undefined-text-0" data-fill-palette-color="primary" id="text-0">
</path>
</svg>
</g>
</svg>
</g>
</svg>
</g>
</svg>
</g>
<g>
<svg viewBox="0 0 196.217081463902 111.1915554362416" height="111.1915554362416" width="196.217081463902"><g><svg xmlns="http://www.w3.org/2000/svg" xmlnsXlink="http://www.w3.org/1999/xlink" version="1.1" x="0" y="0" viewBox="5.098177909851074 17.884000778198242 89.80264282226562 50.88902282714844" enable-background="new 0 0 100 100" xmlSpace="preserve" height="111.1915554362416" width="196.217081463902" class="icon-icon-0" data-fill-palette-color="accent" id="icon-0"><g fill="#ff4136" data-fill-palette-color="accent"><path d="M85.625 55.931c-2.566-1.354-19.665-8.051-24.652-16.031-4.039-6.461-8.732-7.877-10.371-8.182v-0.915c0-2.371-0.643-3.935-2.022-4.917l-0.454-0.363c-0.847-0.701-1.333-1.731-1.333-2.829 0-2.023 1.646-3.669 3.669-3.669 1.092 0 2.119 0.48 2.819 1.32l0.35 0.494 0.011 0.015c0.872 1.155 2.18 1.841 3.611 1.906 0.04 0.003 0.08 0.005 0.12 0.005 0.009 0 0.016-0.001 0.023-0.001 0.027 0 0.056 0.001 0.084 0.001V22.76c0.533-0.04 0.95-0.368 0.95-0.768 0-0.426-0.473-0.772-1.058-0.772-0.331 0-0.625 0.112-0.819 0.286-0.789-0.203-1.489-0.664-1.997-1.334l-0.358-0.505-0.025-0.033c-0.918-1.112-2.271-1.75-3.711-1.75-2.651 0-4.809 2.158-4.809 4.81 0 1.44 0.638 2.793 1.75 3.711l0.476 0.381 0.028 0.021c0.724 0.512 1.555 1.428 1.555 3.997v0.902c-1.579 0.28-6.342 1.646-10.435 8.194-4.987 7.98-22.087 14.678-24.652 16.031-2.565 1.354-11.329 6.057-8.835 11.542 1.02 2.242 3.67 1.342 6.848-0.862H50h37.611c3.177 2.204 5.828 3.104 6.848 0.862C96.953 61.987 88.189 57.284 85.625 55.931zM50 64.558H15.078c3.969-3.261 8.25-7.627 11.054-10.123C31.975 49.233 44.989 41.937 50 39.543c5.011 2.394 18.026 9.69 23.869 14.891 2.803 2.496 7.084 6.862 11.054 10.123H50z" fill="#ff4136" data-fill-palette-color="accent">
</path>
</g>
</svg>
</g>
</svg>
</g>
</svg>
</g>
<defs>
</defs>
</svg>
<rect width="395.52" height="73.08264828013017" fill="none" stroke="none" visibility="hidden">
</rect>
</g>
</svg>
</g>
</svg>