<svg xmlns="http://www.w3.org/2000/svg" xmlns:xlink="http://www.w3.org/1999/xlink" version="1.1" width="130" height="50" viewbox="0 0 290 115"  xml:space="preserve">
<desc>Created with Fabric.js 3.5.0</desc>
<g transform="matrix(2.185 0 0 2.185 98 56)" id="890443">
<path style="stroke: none; stroke-width: 1; stroke-dasharray: none; stroke-linecap: butt; stroke-dashoffset: 0; stroke-linejoin: miter; stroke-miterlimit: 4; is-custom-font: none; font-file-url: none; fill: rgb(255,51,51); fill-rule: nonzero; opacity: 1;" vector-effect="non-scaling-stroke" transform=" translate(-49.9995, -43.3285)" d="M 85.625 55.931 c -2.566 -1.354 -19.665 -8.051 -24.652 -16.031 c -4.039 -6.461 -8.732 -7.877 -10.371 -8.182 v -0.915 c 0 -2.371 -0.643 -3.935 -2.022 -4.917 l -0.454 -0.363 c -0.847 -0.701 -1.333 -1.731 -1.333 -2.829 c 0 -2.023 1.646 -3.669 3.669 -3.669 c 1.092 0 2.119 0.48 2.819 1.32 l 0.35 0.494 l 0.011 0.015 c 0.872 1.155 2.18 1.841 3.611 1.906 c 0.04 0.003 0.08 0.005 0.12 0.005 c 0.009 0 0.016 -0.001 0.023 -0.001 c 0.027 0 0.056 0.001 0.084 0.001 V 22.76 c 0.533 -0.04 0.95 -0.368 0.95 -0.768 c 0 -0.426 -0.473 -0.772 -1.058 -0.772 c -0.331 0 -0.625 0.112 -0.819 0.286 c -0.789 -0.203 -1.489 -0.664 -1.997 -1.334 l -0.358 -0.505 l -0.025 -0.033 c -0.918 -1.112 -2.271 -1.75 -3.711 -1.75 c -2.651 0 -4.809 2.158 -4.809 4.81 c 0 1.44 0.638 2.793 1.75 3.711 l 0.476 0.381 l 0.028 0.021 c 0.724 0.512 1.555 1.428 1.555 3.997 v 0.902 c -1.579 0.28 -6.342 1.646 -10.435 8.194 c -4.987 7.98 -22.087 14.678 -24.652 16.031 c -2.565 1.354 -11.329 6.057 -8.835 11.542 c 1.02 2.242 3.67 1.342 6.848 -0.862 H 50 h 37.611 c 3.177 2.204 5.828 3.104 6.848 0.862 C 96.953 61.987 88.189 57.284 85.625 55.931 z M 50 64.558 H 15.078 c 3.969 -3.261 8.25 -7.627 11.054 -10.123 C 31.975 49.233 44.989 41.937 50 39.543 c 5.011 2.394 18.026 9.69 23.869 14.891 c 2.803 2.496 7.084 6.862 11.054 10.123 H 50 z" stroke-linecap="round"/>
</g>
<g transform="matrix(0.1929 0 0 0.0695 98.0176 104.9235)" id="532666">
<path style="stroke: none; stroke-width: 1; stroke-dasharray: none; stroke-linecap: butt; stroke-dashoffset: 0; stroke-linejoin: miter; stroke-miterlimit: 4; is-custom-font: none; font-file-url: none; fill: rgb(0,0,0); fill-rule: nonzero; opacity: 1;" vector-effect="non-scaling-stroke" transform=" translate(-512, -512)" d="M 904 476 H 120 c -4.4 0 -8 3.6 -8 8 v 56 c 0 4.4 3.6 8 8 8 h 784 c 4.4 0 8 -3.6 8 -8 v -56 c 0 -4.4 -3.6 -8 -8 -8 z" stroke-linecap="round"/>
</g>
<g transform="matrix(0.3273 0 0 0.1641 144.4689 71.6992)" id="772138">
<g style="" vector-effect="non-scaling-stroke">
		<g transform="matrix(1 0 0 1 0 0)">
<rect style="stroke: none; stroke-width: 1; stroke-dasharray: none; stroke-linecap: butt; stroke-dashoffset: 0; stroke-linejoin: miter; stroke-miterlimit: 4; is-custom-font: none; font-file-url: none; fill: none; fill-rule: nonzero; opacity: 1;" x="-128" y="-128" rx="0" ry="0" width="256" height="256"/>
</g>
		<g transform="matrix(1 0 0 1 0 0)">
<rect style="stroke: none; stroke-width: 1; stroke-dasharray: none; stroke-linecap: butt; stroke-dashoffset: 0; stroke-linejoin: miter; stroke-miterlimit: 4; is-custom-font: none; font-file-url: none; fill: rgb(255,255,255); fill-rule: nonzero; opacity: 1;" x="-104" y="-88" rx="16" ry="16" width="208" height="176"/>
</g>
</g>
</g>
<g transform="matrix(1 0 0 1 186.4635 71.8544)" style="" id="951432">
		
<path xml:space="preserve" font-family="Aldrich" font-size="36" font-style="normal" font-weight="normal" style="stroke: none; stroke-width: 1; stroke-dasharray: none; stroke-linecap: butt; stroke-dashoffset: 0; stroke-linejoin: miter; stroke-miterlimit: 4; is-custom-font: none; font-file-url: none; fill: rgb(0,0,0); fill-rule: nonzero; opacity: 1; white-space: pre;" d="M-86.94 0.52L-99.18 0.52Q-99.91 0.52-100.57 0.23Q-101.23-0.06-101.72-0.55Q-102.22-1.03-102.50-1.69Q-102.78-2.35-102.78-3.09L-102.78-3.09L-102.78-10.29Q-102.78-11.03-102.50-11.69Q-102.22-12.35-101.72-12.83Q-101.23-13.32-100.57-13.61Q-99.91-13.90-99.18-13.90L-99.18-13.90L-86.94-13.90Q-86.20-13.90-85.54-13.61Q-84.88-13.32-84.39-12.83Q-83.90-12.35-83.62-11.69Q-83.34-11.03-83.34-10.29L-83.34-10.29L-83.34-7.04L-86.94-7.04L-86.94-10.29L-99.18-10.29L-99.18-3.09L-86.94-3.09Q-86.20-3.09-85.54-2.81Q-84.88-2.52-84.39-2.03Q-83.90-1.54-83.62-0.88Q-83.34-0.22-83.34 0.52L-83.34 0.52L-83.34 7.71Q-83.34 8.44-83.62 9.10Q-83.90 9.76-84.39 10.25Q-84.88 10.75-85.54 11.03Q-86.20 11.31-86.94 11.31L-86.94 11.31L-99.53 11.31Q-100.27 11.31-100.92 11.03Q-101.58 10.75-102.08 10.25Q-102.57 9.76-102.85 9.10Q-103.13 8.44-103.13 7.71L-103.13 7.71L-103.13 4.47L-99.53 4.47L-99.53 7.71L-86.94 7.71L-86.94 0.52ZM-60.64-3.95L-60.64 11.31L-64.11 11.31L-64.11-3.95L-73.76-3.95L-73.76 11.31L-77.20 11.31L-77.20-14.62L-73.76-14.62L-73.76-4.11Q-73.72-4.79-73.44-5.40Q-73.16-6.01-72.69-6.45Q-72.23-6.90-71.61-7.16Q-71.00-7.41-70.29-7.41L-70.29-7.41L-64.11-7.41Q-63.39-7.41-62.75-7.14Q-62.12-6.87-61.66-6.40Q-61.19-5.94-60.92-5.30Q-60.64-4.67-60.64-3.95L-60.64-3.95ZM-54.70-7.41L-51.24-7.41L-51.24 11.31L-54.70 11.31L-54.70-7.41ZM-54.88-11.02L-54.88-14.62L-51.06-14.62L-51.06-11.02L-54.88-11.02ZM-34.72-3.95L-41.85-3.95L-41.85 11.31L-45.30 11.31L-45.30-7.41L-41.85-7.41L-41.85-4.11Q-41.82-4.79-41.54-5.40Q-41.26-6.01-40.79-6.45Q-40.32-6.90-39.71-7.16Q-39.09-7.41-38.39-7.41L-38.39-7.41L-34.72-7.41Q-34.00-7.41-33.37-7.14Q-32.75-6.87-32.27-6.40Q-31.80-5.94-31.53-5.30Q-31.25-4.67-31.25-3.95L-31.25-3.95L-31.25-0.78L-34.72-0.78L-34.72-3.95ZM-28.76-10.29L-28.76-13.90L-8.60-13.90L-8.60-10.29L-16.88-10.29L-16.88 11.31L-20.48 11.31L-20.48-10.29L-28.76-10.29ZM11.94-3.95L11.94 11.31L8.47 11.31L8.47-3.95L-1.18-3.95L-1.18 11.31L-4.62 11.31L-4.62-7.41L-1.18-7.41L-1.18-4.11Q-1.14-4.79-0.86-5.40Q-0.58-6.01-0.11-6.45Q0.35-6.90 0.97-7.16Q1.58-7.41 2.29-7.41L2.29-7.41L8.47-7.41Q9.19-7.41 9.83-7.14Q10.46-6.87 10.92-6.40Q11.39-5.94 11.66-5.30Q11.94-4.67 11.94-3.95L11.94-3.95ZM21.66 11.31L18.05 11.31L18.05-13.90L31.85-13.90Q37.97-13.90 37.97-7.76L37.97-7.76L37.97-4.18Q37.97 1.96 31.85 1.96L31.85 1.96L21.66 1.96L21.66 11.31ZM21.66-10.29L21.66-1.65L31.66-1.65Q33.10-1.65 33.73-2.28Q34.37-2.91 34.37-4.35L34.37-4.35L34.37-7.59Q34.37-9.03 33.73-9.66Q33.10-10.29 31.66-10.29L31.66-10.29L21.66-10.29ZM42.64 7.85L42.64 3.14Q42.64 2.41 42.92 1.79Q43.19 1.17 43.66 0.69Q44.12 0.22 44.75-0.06Q45.39-0.33 46.09-0.33L46.09-0.33L55.02-0.33L55.02-3.95L43.72-3.95L43.72-7.41L55.02-7.41Q55.74-7.41 56.37-7.14Q57.01-6.87 57.47-6.40Q57.94-5.94 58.21-5.30Q58.48-4.67 58.48-3.95L58.48-3.95L58.48 11.31L55.02 11.31L55.02 8.14Q54.97 8.80 54.67 9.38Q54.37 9.96 53.90 10.39Q53.44 10.82 52.84 11.06Q52.24 11.31 51.57 11.31L51.57 11.31L46.09 11.31Q45.39 11.31 44.75 11.04Q44.12 10.76 43.66 10.30Q43.19 9.83 42.92 9.20Q42.64 8.57 42.64 7.85L42.64 7.85ZM46.09 3.14L46.09 7.85L55.02 7.85L55.02 3.14L46.09 3.14ZM80.81-3.95L80.81 11.31L77.34 11.31L77.34-3.95L67.69-3.95L67.69 11.31L64.25 11.31L64.25-7.41L67.69-7.41L67.69-4.11Q67.73-4.79 68.01-5.40Q68.29-6.01 68.76-6.45Q69.22-6.90 69.84-7.16Q70.45-7.41 71.16-7.41L71.16-7.41L77.34-7.41Q78.06-7.41 78.70-7.14Q79.33-6.87 79.80-6.40Q80.26-5.94 80.53-5.30Q80.81-4.67 80.81-3.95L80.81-3.95ZM84.76-10.29L84.76-13.90L104.92-13.90L104.92-10.29L96.64-10.29L96.64 11.31L93.04 11.31L93.04-10.29L84.76-10.29Z"/></g>
</svg>